<svg id="visual" viewBox="0 0 960 540" width="960" height="540" xmlns="http://www.w3.org/2000/svg" xmlns:xlink="http://www.w3.org/1999/xlink" version="1.1"><rect x="0" y="0" width="960" height="540" fill="#EADBC8"></rect><defs><linearGradient id="grad1_0" x1="43.8%" y1="100%" x2="100%" y2="0%"><stop offset="14.444444444444446%" stop-color="#ffffff" stop-opacity="1"></stop><stop offset="85.55555555555554%" stop-color="#ffffff" stop-opacity="1"></stop></linearGradient></defs><defs><linearGradient id="grad1_1" x1="43.8%" y1="100%" x2="100%" y2="0%"><stop offset="14.444444444444446%" stop-color="#ffffff" stop-opacity="1"></stop><stop offset="85.55555555555554%" stop-color="#faf6f1" stop-opacity="1"></stop></linearGradient></defs><defs><linearGradient id="grad1_2" x1="43.8%" y1="100%" x2="100%" y2="0%"><stop offset="14.444444444444446%" stop-color="#f5ede3" stop-opacity="1"></stop><stop offset="85.55555555555554%" stop-color="#faf6f1" stop-opacity="1"></stop></linearGradient></defs><defs><linearGradient id="grad1_3" x1="43.8%" y1="100%" x2="100%" y2="0%"><stop offset="14.444444444444446%" stop-color="#f5ede3" stop-opacity="1"></stop><stop offset="85.55555555555554%" stop-color="#efe4d6" stop-opacity="1"></stop></linearGradient></defs><defs><linearGradient id="grad1_4" x1="43.8%" y1="100%" x2="100%" y2="0%"><stop offset="14.444444444444446%" stop-color="#eadbc8" stop-opacity="1"></stop><stop offset="85.55555555555554%" stop-color="#efe4d6" stop-opacity="1"></stop></linearGradient></defs><defs><linearGradient id="grad2_0" x1="0%" y1="100%" x2="56.3%" y2="0%"><stop offset="14.444444444444446%" stop-color="#ffffff" stop-opacity="1"></stop><stop offset="85.55555555555554%" stop-color="#ffffff" stop-opacity="1"></stop></linearGradient></defs><defs><linearGradient id="grad2_1" x1="0%" y1="100%" x2="56.3%" y2="0%"><stop offset="14.444444444444446%" stop-color="#faf6f1" stop-opacity="1"></stop><stop offset="85.55555555555554%" stop-color="#ffffff" stop-opacity="1"></stop></linearGradient></defs><defs><linearGradient id="grad2_2" x1="0%" y1="100%" x2="56.3%" y2="0%"><stop offset="14.444444444444446%" stop-color="#faf6f1" stop-opacity="1"></stop><stop offset="85.55555555555554%" stop-color="#f5ede3" stop-opacity="1"></stop></linearGradient></defs><defs><linearGradient id="grad2_3" x1="0%" y1="100%" x2="56.3%" y2="0%"><stop offset="14.444444444444446%" stop-color="#efe4d6" stop-opacity="1"></stop><stop offset="85.55555555555554%" stop-color="#f5ede3" stop-opacity="1"></stop></linearGradient></defs><defs><linearGradient id="grad2_4" x1="0%" y1="100%" x2="56.3%" y2="0%"><stop offset="14.444444444444446%" stop-color="#efe4d6" stop-opacity="1"></stop><stop offset="85.55555555555554%" stop-color="#eadbc8" stop-opacity="1"></stop></linearGradient></defs><g transform="translate(960, 540)"><path d="M-378 0C-369.3 -68.1 -360.5 -136.2 -327.4 -189C-294.2 -241.8 -236.6 -279.4 -178 -308.3C-119.4 -337.3 -59.7 -357.6 0 -378L0 0Z" fill="#eddfcf"></path><path d="M-302.4 0C-295.4 -54.5 -288.4 -108.9 -261.9 -151.2C-235.4 -193.5 -189.3 -223.5 -142.4 -246.6C-95.5 -269.8 -47.7 -286.1 0 -302.4L0 0Z" fill="#f2e8dc"></path><path d="M-226.8 0C-221.6 -40.9 -216.3 -81.7 -196.4 -113.4C-176.5 -145.1 -142 -167.6 -106.8 -185C-71.6 -202.4 -35.8 -214.6 0 -226.8L0 0Z" fill="#f7f1ea"></path><path d="M-151.2 0C-147.7 -27.2 -144.2 -54.5 -130.9 -75.6C-117.7 -96.7 -94.7 -111.7 -71.2 -123.3C-47.7 -134.9 -23.9 -143.1 0 -151.2L0 0Z" fill="#fcfaf8"></path><path d="M-75.6 0C-73.9 -13.6 -72.1 -27.2 -65.5 -37.8C-58.8 -48.4 -47.3 -55.9 -35.6 -61.7C-23.9 -67.5 -11.9 -71.5 0 -75.6L0 0Z" fill="#ffffff"></path></g><g transform="translate(0, 0)"><path d="M378 0C355.3 58.4 332.6 116.7 304 175.5C275.3 234.3 240.7 293.5 189 327.4C137.3 361.2 68.7 369.6 0 378L0 0Z" fill="#eddfcf"></path><path d="M302.4 0C284.3 46.7 266.1 93.4 243.2 140.4C220.2 187.4 192.5 234.8 151.2 261.9C109.9 288.9 54.9 295.7 0 302.4L0 0Z" fill="#f2e8dc"></path><path d="M226.8 0C213.2 35 199.6 70 182.4 105.3C165.2 140.6 144.4 176.1 113.4 196.4C82.4 216.7 41.2 221.8 0 226.8L0 0Z" fill="#f7f1ea"></path><path d="M151.2 0C142.1 23.3 133.1 46.7 121.6 70.2C110.1 93.7 96.3 117.4 75.6 130.9C54.9 144.5 27.5 147.8 0 151.2L0 0Z" fill="#fcfaf8"></path><path d="M75.6 0C71.1 11.7 66.5 23.3 60.8 35.1C55.1 46.9 48.1 58.7 37.8 65.5C27.5 72.2 13.7 73.9 0 75.6L0 0Z" fill="#ffffff"></path></g></svg>